HIERARCHY
ROOT pelvis
{
  OFFSET 0 100 0
  CHANNELS 6 Xposition Yposition Zposition Zrotation Xrotation Yrotation
  JOINT pelvis_right_femur
  {
    OFFSET -10.78128 -3.44521 -0.5502486
    CHANNELS 3 Zrotation Xrotation Yrotation
    JOINT right_femur_tibia
    {
      OFFSET -0.8047443 -44.0398 -0.1307829
      CHANNELS 3 Zrotation Xrotation Yrotation
      JOINT right_tibia_foot
      {
        OFFSET 3.006224 -47.83518 -5
        CHANNELS 3 Zrotation Xrotation Yrotation
        End Site
        {
          OFFSET 0 -5 15
        }
      }
    }
  }
  JOINT pelvis_left_femur
  {
    OFFSET 10.78128 -3.44521 -0.5502486
    CHANNELS 3 Zrotation Xrotation Yrotation
    JOINT left_femur_tibia
    {
      OFFSET 0.8047443 -44.0398 -0.1307829
      CHANNELS 3 Zrotation Xrotation Yrotation
      JOINT left_tibia_foot
      {
        OFFSET -4.370144 -48.10324 -4.275266
        CHANNELS 3 Zrotation Xrotation Yrotation
        End Site
        {
          OFFSET 0 -5 15
        }
      }
    }
  }
  JOINT pelvis_spine1
  {
    OFFSET 0 6.468898 -3.129235
    CHANNELS 3 Zrotation Xrotation Yrotation
    JOINT spine1
    {
      OFFSET 0 23.15396 4.99043
      CHANNELS 3 Zrotation Xrotation Yrotation
      JOINT spine2
      {
        OFFSET 0 20.79997 -5.064912
        CHANNELS 3 Zrotation Xrotation Yrotation
        JOINT neck
        {
          OFFSET 0 14.38658 9.616178
          CHANNELS 3 Zrotation Xrotation Yrotation
          End Site
          {
            OFFSET 0 20 0
          }
        }
      }
      JOINT right_manubrium
      {
        OFFSET -5.722621 16.35077 3.967754
        CHANNELS 3 Zrotation Xrotation Yrotation
        JOINT right_clavicle
        {
          OFFSET -13.16364 1.694482 -4.693211
          CHANNELS 3 Zrotation Xrotation Yrotation
          JOINT right_humerus
          {
            OFFSET -28.5034 -0.3100689 -2.792744
            CHANNELS 3 Zrotation Xrotation Yrotation
            JOINT right_radius
            {
              OFFSET -25.15693 0.02248979 -1.271978
              CHANNELS 3 Zrotation Xrotation Yrotation
              End Site
              {
                OFFSET -15 0 0
              }
            }
          }
        }
      }
      JOINT left_manubrium
      {
        OFFSET 5.722621 16.35077 3.967754
        CHANNELS 3 Zrotation Xrotation Yrotation
        JOINT left_clavicle
        {
          OFFSET 13.16364 1.694482 -4.693211
          CHANNELS 3 Zrotation Xrotation Yrotation
          JOINT left_humerus
          {
            OFFSET 29.39168 -1.063119 -2.237045
            CHANNELS 3 Zrotation Xrotation Yrotation
            JOINT left_radius
            {
              OFFSET 24.59957 -0.9528479 0.9047498
              CHANNELS 3 Zrotation Xrotation Yrotation
              End Site
              {
                OFFSET 15 -0 -0
              }
            }
          }
        }
      }
    }
  }
}
MOTION
Frames: 7
Frame Time: 0.0416666666667
0 103.5113 0 0.4992316 -0.3730158 0.7656221 2.013503 -23.09684 4.689894 -0 31.9296 -0 -2.97378 -8.438395 -3.632788 -6.15763 11.96666 -18.08536 0 -5.191215 0 2.157058 -22.32032 20.8769 -3.361157 -1.480242 3.456842 1.649222 8.218577 -7.458286 1.358068 21.53695 7.785903 3.355466 -22.50303 9.622259 4.732327 -17.99811 10.42849 86.04572 33.72091 -18.39629 -0 0 15.41501 -13.4155 10.78477 7.743006 6.982461 -19.97512 -2.22068 -89.8971 28.68334 16.82333 0 0 -20.27519 3.243831 13.44351 10.68424
0.5651239 102.3428 3.445998 0.5929143 -0.4444478 1.577327 1.746158 -22.36834 4.790187 -0 33.54506 -0 -2.645791 -8.412106 -3.637324 -6.282555 11.53981 -18.25 0 -6.251788 0 2.124772 -22.41284 21.09723 -3.484525 -1.457606 3.500125 1.553505 8.125241 -7.324833 1.379079 21.57696 7.836275 3.354404 -22.40295 9.696479 4.835819 -18.01967 10.38062 85.67278 33.80665 -17.90774 -0 0 15.78711 -13.60694 10.82153 7.933053 6.926308 -19.6369 -2.13568 -90.15039 28.97533 17.16712 0 0 -19.69097 2.844658 13.30589 11.20768
1.05884 101.1637 6.92359 0.3828877 -0.1910286 2.268064 2.428824 -24.15393 4.720549 -0 29.69245 -0 -3.225752 -8.730842 -3.707312 -5.991908 12.52886 -17.88421 0 -3.469816 0 2.030704 -22.21227 20.53302 -3.197342 -1.482889 3.416984 1.789505 8.275558 -7.643057 1.338508 21.46891 7.739103 3.353136 -22.61533 9.555884 4.696186 -17.87139 10.48187 86.45637 33.77838 -19.08948 -0 0 14.92013 -13.08963 10.83879 7.44335 7.059109 -20.35519 -2.257821 -89.57321 28.52039 16.31454 0 0 -21.15976 3.56772 13.5365 10.27722
1.492061 99.88121 10.30633 0.1483114 0.2889328 2.858891 3.074435 -26.11079 4.6798 -0 25.83029 -0 -3.945107 -9.37805 -3.61725 -5.722078 13.44909 -17.86302 0 -2.622906 0 2.409941 -22.31195 20.31856 -2.982743 -1.582574 3.346703 2.066482 8.383991 -7.982 1.26706 21.31589 7.671634 3.37548 -22.99896 9.444254 4.612851 -17.94519 10.5988 87.03304 33.96138 -20.08378 -0 0 14.38388 -12.3166 10.69883 6.94575 7.24551 -21.07 -2.316033 -89.2693 28.12351 15.89314 0 0 -22.48033 4.414272 13.97505 9.226339
1.856606 98.52031 13.65071 -0.06224515 0.6173178 3.355236 3.68083 -27.78922 4.65757 -0 22.34896 -0 -4.542356 -9.820149 -3.606755 -5.472119 14.29672 -17.70265 0 -1.054103 0 2.558628 -22.27252 19.98064 -2.758306 -1.642332 3.27947 2.299147 8.500078 -8.278367 1.2151 21.19731 7.596826 3.384638 -23.27318 9.329392 4.509943 -17.92441 10.69843 87.64632 34.01815 -21.05479 -0 0 13.76556 -11.732 10.62896 6.504725 7.389825 -21.71733 -2.395243 -88.89504 27.72678 15.34782 0 0 -23.72569 5.141027 14.26943 8.313777
2.156518 97.11866 17.00767 -0.2356369 0.7982379 3.765535 4.199942 -29.13232 4.611398 -0 19.41448 -0 -5.049746 -10.02101 -3.634468 -5.257625 15.03945 -17.44921 -0 0.8576495 -0 2.568391 -22.13259 19.58797 -2.542805 -1.675169 3.214391 2.480612 8.628622 -8.52181 1.179101 21.1156 7.517836 3.384518 -23.45321 9.213324 4.377506 -17.85737 10.78072 88.2579 33.93823 -21.92728 -0 0 13.12953 -11.34095 10.59317 6.145358 7.492227 -22.28598 -2.50189 -88.49706 27.30549 14.76341 0 0 -24.80555 5.77487 14.45713 7.502219
2.397222 95.7288 20.45194 -0.3567512 0.786442 4.098778 4.620565 -30.05874 4.551083 -0 17.15169 -0 -5.395303 -9.932941 -3.736715 -5.087787 15.66145 -17.04641 -0 3.44906 -0 2.327328 -21.83864 19.08369 -2.331458 -1.661679 3.153161 2.596103 8.764923 -8.698317 1.167854 21.08173 7.434816 3.370358 -23.49439 9.09935 4.221861 -17.6908 10.83797 88.86763 33.70173 -22.70087 -0 0 12.43704 -11.20254 10.63837 5.878196 7.537131 -22.74346 -2.636387 -88.04335 26.88965 14.07476 0 0 -25.7145 6.234447 14.48233 6.888799
